<!-- icon666.com - MILLIONS vector ICONS FREE --><svg fill="none" viewBox="0 0 24 24" xmlns="http://www.w3.org/2000/svg"><path clip-rule="evenodd" d="m11.4697 4.71967c.2929-.29289.7677-.29289 1.0606 0l7.5 7.50003c.2929.2929.2929.7677 0 1.0606s-.7677.2929-1.0606 0l-6.9697-6.96964-6.96967 6.96964c-.29289.2929-.76777.2929-1.06066 0s-.29289-.7677 0-1.0606zm.5303 7.59103-6.96967 6.9696c-.29289.2929-.76777.2929-1.06066 0s-.29289-.7677 0-1.0606l7.50003-7.5c.2929-.2929.7677-.2929 1.0606 0l7.5 7.5c.2929.2929.2929.7677 0 1.0606s-.7677.2929-1.0606 0z" fill="rgb(0,0,0)" fill-rule="evenodd"></path></svg>